<?xml version="1.0" encoding="UTF-8" standalone="no"?>
<svg width="272px" height="35px" viewBox="0 0 272 35" version="1.1" xmlns="http://www.w3.org/2000/svg" xmlns:xlink="http://www.w3.org/1999/xlink">
    <!-- Generator: Sketch 3.7 (28169) - http://www.bohemiancoding.com/sketch -->
    <title>dvsty_logo_fff</title>
    <desc>Created with Sketch.</desc>
    <defs>
        <polygon id="path-1" points="0.53030303 34.6904091 271.447803 34.6904091 271.447803 0.000106060606 0.53030303 0.000106060606"></polygon>
    </defs>
    <g id="Page-1" stroke="none" stroke-width="1" fill="none" fill-rule="evenodd">
        <g id="Artboard-1" transform="translate(-64.000000, -78.000000)">
            <g id="dvsty_logo_fff" transform="translate(64.000000, 78.000000)">
                <path d="M30.9773864,33.8511515 L19.0869318,33.8511515 C16.6326894,33.8511515 14.2845076,33.4942576 12.0476894,32.7788788 C9.80875,32.0640303 7.83549242,31.0150909 6.12473485,29.6315303 C4.41609848,28.2490303 3.05587121,26.5382727 2.04511364,24.5019091 C1.03594697,22.4666061 0.530037879,20.1120606 0.530037879,17.4382727 C0.530037879,14.4240303 1.05079545,11.8589545 2.09231061,9.74516667 C3.13329545,7.63137879 4.54018939,5.91425758 6.31140152,4.59221212 C8.08314394,3.27175758 10.1576894,2.31562121 12.5360985,1.72486364 C14.9145076,1.13463636 17.4249621,0.838727273 20.0658712,0.838727273 L30.9773864,0.838727273 L30.9773864,33.8511515 Z M23.7042803,7.55342424 L19.4135985,7.55342424 C17.8910985,7.55342424 16.4385985,7.74751515 15.0545076,8.13622727 C13.6714773,8.52493939 12.4666288,9.10774242 11.4404924,9.88463636 C10.4143561,10.6620606 9.5992803,11.6494848 8.99208333,12.8453182 C8.38647727,14.0427424 8.08314394,15.4491061 8.08314394,17.0654697 C8.08314394,18.9300152 8.38647727,20.5087273 8.99208333,21.7978939 C9.5992803,23.0881212 10.4307955,24.1296364 11.4871591,24.9219091 C12.544053,25.7147121 13.7960985,26.2826667 15.2411742,26.6241818 C16.6857197,26.9662273 18.2479924,27.1369848 19.9264015,27.1369848 L23.7042803,27.1369848 L23.7042803,7.55342424 Z" id="Fill-1" fill="#FFFFFF"></path>
                <mask id="mask-2" fill="white">
                    <use xlink:href="#path-1"></use>
                </mask>
                <g id="Clip-5"></g>
                <polygon id="Fill-4" fill="#FFFFFF" mask="url(#mask-2)" points="40.489697 33.8509394 47.762803 33.8509394 47.762803 0.838515152 40.489697 0.838515152"></polygon>
                <g id="Group-22" mask="url(#mask-2)" fill="#FFFFFF">
                    <g transform="translate(94.924242, -0.309591)">
                        <path d="M34.0938712,1.14837121 L46.8688712,1.14837121 C48.5478106,1.14837121 50.1413712,1.31223485 51.6484924,1.63837121 C53.1556136,1.96450758 54.4776591,2.50912879 55.611447,3.27011364 C56.7468258,4.03215909 57.6472803,5.05829545 58.3165227,6.34746212 C58.9841742,7.63768939 59.3198561,9.24662879 59.3198561,11.1732197 C59.3198561,13.5049621 58.7126591,15.4861742 57.501447,17.118447 C56.2886439,18.7501894 54.5158409,19.78375 52.1846288,20.2185985 L60.5777348,34.1607955 L51.8579621,34.1607955 L44.9581894,20.9647348 L41.3669773,20.9647348 L41.3669773,34.1607955 L34.0938712,34.1607955 L34.0938712,1.14837121 Z M41.3669773,14.8100379 L45.6576591,14.8100379 C46.3104621,14.8100379 47.0009167,14.7872348 47.7327348,14.7400379 C48.4629621,14.6939015 49.1231894,14.5533712 49.7134167,14.3205682 C50.3036439,14.0877652 50.7941742,13.7223864 51.1828864,13.2244318 C51.5710682,12.7285985 51.7656894,12.0285985 51.7656894,11.1270833 C51.7656894,10.2876136 51.5938712,9.61890152 51.2523561,9.12200758 C50.90925,8.62511364 50.4754621,8.24382576 49.9472803,7.97920455 C49.4175076,7.71564394 48.8119015,7.53693182 48.1288712,7.44306818 C47.44425,7.34973485 46.7765985,7.30359848 46.1237955,7.30359848 L41.3669773,7.30359848 L41.3669773,14.8100379 Z" id="Fill-13"></path>
                        <path d="M0.335893939,1.14815909 L22.7629394,1.14815909 L22.7629394,7.86285606 L7.609,7.86285606 L7.609,14.017553 L21.924,14.017553 L21.924,20.7317197 L7.609,20.7317197 L7.609,27.4464167 L23.6024091,27.4464167 L23.6024091,34.1605833 L0.335893939,34.1605833 L0.335893939,1.14815909 Z M85.2910227,9.21534091 C84.6992045,8.46920455 83.8989773,7.91768939 82.8898106,7.55920455 C81.879053,7.20284091 80.9229167,7.02359848 80.0214015,7.02359848 C79.4932197,7.02359848 78.9496591,7.08564394 78.3896591,7.21026515 C77.8296591,7.33488636 77.3014773,7.52897727 76.8051136,7.79306818 C76.3071591,8.05715909 75.9020076,8.40715909 75.5923106,8.84200758 C75.2810227,9.27738636 75.1261742,9.80556818 75.1261742,10.4270833 C75.1261742,11.4224621 75.4979167,12.1839773 76.2445833,12.7121591 C76.9901894,13.2414015 77.930947,13.6916288 79.0647348,14.0639015 C80.2001136,14.4372348 81.4203409,14.8100379 82.725947,15.1833712 C84.0310227,15.5561742 85.2517803,16.0848864 86.3866288,16.7689773 C87.5204167,17.4525379 88.4617045,18.3699621 89.2067803,19.5196591 C89.9539773,20.6704167 90.3257197,22.2088258 90.3257197,24.1354167 C90.3257197,25.9702652 89.9842045,27.57125 89.3011742,28.9383712 C88.616553,30.3070833 87.6922348,31.4408712 86.5266288,32.3423864 C85.3610227,33.2439015 84.0082197,33.9126136 82.4692803,34.3474621 C80.9303409,34.7823106 79.3060227,34.9997348 77.5973864,34.9997348 C75.4523106,34.9997348 73.4626136,34.6735985 71.6293561,34.0207955 C69.7939773,33.3685227 68.0853409,32.3121591 66.4992045,30.8501136 L71.6749621,25.161553 C72.4216288,26.1564015 73.3607955,26.9258712 74.4961742,27.4694318 C75.6299621,28.0135227 76.8051136,28.2860985 78.0163258,28.2860985 C78.606553,28.2860985 79.2063258,28.2155682 79.8119318,28.0755682 C80.4175379,27.9360985 80.9605682,27.7260985 81.4431439,27.4466288 C81.9246591,27.1666288 82.3128409,26.8097348 82.6092803,26.3743561 C82.9051894,25.938447 83.0520833,25.4261742 83.0520833,24.8354167 C83.0520833,23.8410985 82.6713258,23.05625 81.9092803,22.4803409 C81.1472348,21.9060227 80.1926894,21.416553 79.0419318,21.0119318 C77.8917045,20.6078409 76.6486742,20.20375 75.3128409,19.7991288 C73.975947,19.3960985 72.7313258,18.8520076 71.5821591,18.1673864 C70.4314015,17.4843561 69.4752652,16.5823106 68.7148106,15.4633712 C67.9527652,14.3439015 67.5720076,12.8680682 67.5720076,11.03375 C67.5720076,9.26147727 67.920947,7.70715909 68.620947,6.37079545 C69.3204167,5.03443182 70.2526894,3.91602273 71.4182955,3.01344697 C72.5839015,2.11246212 73.92875,1.43632576 75.4523106,0.985037879 C76.9748106,0.534810606 78.5445076,0.309431818 80.1608712,0.309431818 C82.025947,0.309431818 83.8295076,0.573522727 85.5704924,1.10170455 C87.3114773,1.63094697 88.8806439,2.51655303 90.2801136,3.75958333 L85.2910227,9.21534091 Z M98.7493182,34.1605303 L106.022424,34.1605303 L106.022424,1.14810606 L98.7493182,1.14810606 L98.7493182,34.1605303 Z M123.693235,7.58296212 L114.276644,7.58296212 L114.276644,1.14826515 L140.386114,1.14826515 L140.386114,7.58296212 L130.969523,7.58296212 L130.969523,34.1606894 L123.693235,34.1606894 L123.693235,7.58296212 Z M156.846879,20.0791288 L144.444682,1.14837121 L153.48953,1.14837121 L160.483697,13.5049621 L167.897864,1.14837121 L176.523773,1.14837121 L164.120515,20.0791288 L164.120515,34.1607955 L156.846879,34.1607955 L156.846879,20.0791288 Z" id="Combined-Shape"></path>
                    </g>
                </g>
                <path d="M53.3009157,1.06060606 L61.1353531,1.06060606 L68.6508131,19.6620224 L64.7656734,28.6261283 L53.3009157,1.06060606 Z M89.0909091,1.06060606 L74.7246793,33.9393939 L67.068504,33.9393939 L81.0247214,1.06060606 L89.0909091,1.06060606 Z" id="Combined-Shape" fill="#FFFFFF" mask="url(#mask-2)"></path>
            </g>
        </g>
    </g>
</svg>